<?xml version="1.0" standalone="no"?>
<!DOCTYPE svg PUBLIC "-//W3C//DTD SVG 20010904//EN" "http://www.w3.org/TR/2001/REC-SVG-20010904/DTD/svg10.dtd">
<!-- Created using Krita: https://krita.org -->
<svg xmlns="http://www.w3.org/2000/svg" 
    xmlns:xlink="http://www.w3.org/1999/xlink"
    xmlns:krita="http://krita.org/namespaces/svg/krita"
    xmlns:sodipodi="http://sodipodi.sourceforge.net/DTD/sodipodi-0.dtd"
    width="1382.4pt"
    height="777.6pt"
    viewBox="0 0 1382.4 777.6">
<defs/>
<g id="group0" transform="matrix(0.368372093023256 0 0 0.314181818181818 378.519069767442 152.219127272726)" fill="none">
  <g id="Layer_1" fill="none">
   <g id="group1" fill="none">
    <path id="shape0" transform="translate(563.5, 381.5)" fill="#ffffff" stroke-opacity="0" stroke="#000000" stroke-width="0" stroke-linecap="square" stroke-linejoin="bevel" d="M0 109L0 0L750 0L750 79.11C732.09 90.67 716.21 100.45 701.45 109Z" sodipodi:nodetypes="cccccc"/>
    <path id="shape1" transform="translate(563, 381)" fill="#000000" stroke-opacity="0" stroke="#000000" stroke-width="0" stroke-linecap="square" stroke-linejoin="bevel" d="M750 1L750 79.34C732.24 90.8 716.47 100.51 701.82 109L1 109L1 1L750 1M751 0L0 0L0 110L702.09 110C718.66 100.4 734.91 90.27 751 79.88L751 0Z" sodipodi:nodetypes="ccccccccccccc"/>
   </g>
   <g id="group2" fill="none">
    <path id="shape2" transform="translate(540.5, 381.5)" fill="#ffffff" stroke-opacity="0" stroke="#000000" stroke-width="0" stroke-linecap="square" stroke-linejoin="bevel" d="M0 109L0 100.62C0.8 100.18 2.5 99.43 4.02 98.76C6.19 97.8 7.54 97.2 7.94 96.9L8.14 96.75L8.16 94.2C8.17 92.09 8.16 88.98 8.16 87.05L8.16 85.22C8.16 85.22 0.01 80.22 0.01 80.22L0.01 0L18.01 0L18.01 109L0.01 109Z" sodipodi:nodetypes="cccccccccccccc"/>
    <path id="shape3" transform="translate(540, 381)" fill="#000000" stroke-opacity="0" stroke="#000000" stroke-width="0" stroke-linecap="square" stroke-linejoin="bevel" d="M18 1L18 109L1 109L1 101.42C1.85 100.99 3.36 100.32 4.73 99.71C7.19 98.62 8.31 98.11 8.74 97.8L9.14 97.5L9.14 97C9.14 97 9.16 94.7 9.16 94.7C9.17 92.58 9.16 89.43 9.16 87.54C9.16 86.82 9.16 86.26 9.16 85.99L9.16 85.43L8.68 85.14L1.01 80.43L1.01 0.99L18.01 0.99M19 0L0 0L0 81L8.14 86C8.14 87 8.18 91.79 8.16 94.7L8.14 97C7.37 97.57 1.35 100 0 100.83L0 110L19 110L19 0Z" sodipodi:nodetypes="ccccccccccccccccccccccccccc"/>
   </g>
  </g>
 </g>
</svg>
