<?xml version="1.0" encoding="UTF-8"?>
<svg xmlns="http://www.w3.org/2000/svg" version="1.1" viewBox="0 0 1920 1080">
  <defs>
    <style>
      .cls-1 {
        fill: #fff;
      }
    </style>
  </defs>
  <!-- Generator: Adobe Illustrator 28.7.1, SVG Export Plug-In . SVG Version: 1.2.0 Build 142)  -->
  <g>
    <g id="Layer_1">
      <g>
        <path class="cls-1" d="M563.5,490.5v-109h750v79.11c-17.91,11.56-33.79,21.34-48.55,29.89h-701.45Z"/>
        <path d="M1313,382v78.34c-17.76,11.46-33.53,21.17-48.18,29.66h-700.82v-108h749M1314,381h-751v110h702.09c16.57-9.6,32.82-19.73,48.91-30.12v-79.88h0Z"/>
      </g>
      <g>
        <path class="cls-1" d="M540.5,490.5v-8.38c.8-.44,2.5-1.19,4.02-1.86,2.17-.96,3.52-1.56,3.92-1.86l.2-.15.02-2.55c.01-2.11,0-5.22,0-7.15v-1.83s-8.15-5-8.15-5v-80.22h18v109h-18Z"/>
        <path d="M558,382v108h-17v-7.58c.85-.43,2.36-1.1,3.73-1.71,2.46-1.09,3.58-1.6,4.01-1.91l.4-.3v-.5s.02-2.3.02-2.3c.01-2.12,0-5.27,0-7.16,0-.72,0-1.28,0-1.55v-.56l-.48-.29-7.67-4.71v-79.44h17M559,381h-19v81l8.14,5c0,1,.04,5.79.02,8.7l-.02,2.3c-.77.57-6.79,3-8.14,3.83v9.17h19v-110h0Z"/>
      </g>
    </g>
  </g>
</svg>